Coordinates
version=1
nRows=12
nColumns=42
inDegrees=yes

Units are S.I. units (second, meters, Newtons, ...)
If the header above contains a line with 'inDegrees', this indicates whether rotational values are in degrees (yes) or radians (no).

endheader
time	pelvis_tilt	pelvis_list	pelvis_rotation	pelvis_tx	pelvis_ty	pelvis_tz	hip_flexion_r	hip_adduction_r	hip_rotation_r	knee_angle_r	knee_angle_r_beta	ankle_angle_r	subtalar_angle_r	mtp_angle_r	hip_flexion_l	hip_adduction_l	hip_rotation_l	knee_angle_l	knee_angle_l_beta	ankle_angle_l	subtalar_angle_l	mtp_angle_l	lumbar_extension	lumbar_bending	lumbar_rotation	sh_tx_r	sh_ty_r	sh_tz_r	sh_plane_elev_r	sh_elev_r	sh_axial_rot_r	elbow_flex_r	pro_sup_r	sh_tx_l	sh_ty_l	sh_tz_l	sh_plane_elev_l	sh_elev_l	sh_axial_rot_l	elbow_flex_l	pro_sup_l
      6.08333330	     -4.88649432	     -0.18067615	     -0.34824643	      0.31255143	      0.96501522	     -0.02240959	      2.81780638	     -4.00698637	     -2.25317865	      2.35813669	      0.04115725	      2.61796590	     -3.71265327	     -7.49999987	      2.96798711	     -2.55211670	    -12.20858743	      1.91823225	      0.03347947	      5.67205404	     -5.45678875	     -7.49999987	      1.48546625	      5.34405556	      0.76284869	     -0.00968755	     -0.01573708	     -0.00585370	     -9.63189820	      4.86635264	     -1.31419660	     30.46086687	    107.46365837	     -0.00851924	      0.00859497	     -0.00482389	     72.55353462	    139.67771766	    -15.18444847	     13.51369128	      7.10535439
      6.10000000	     -4.80613798	     -0.17678664	     -0.32522953	      0.31301338	      0.96493356	     -0.02211407	      2.75289954	     -4.02370332	     -2.00377212	      2.42753018	      0.04236839	      2.66366338	     -3.73168605	     -7.49999987	      2.89775559	     -2.53728559	    -12.08179149	      1.94775669	      0.03399477	      5.73731225	     -5.54817672	     -7.49999987	      1.34818058	      5.39344923	      0.64625449	     -0.00933133	     -0.01556022	     -0.00585691	     -9.53612186	      4.85570073	     -1.01490385	     30.24744878	    107.62437761	     -0.00934748	      0.00840866	     -0.00483709	     72.35114969	    139.74063091	    -14.77742417	     13.32962491	      6.88194830
      6.11666670	     -4.92579688	     -0.22891036	     -0.31610876	      0.31213654	      0.96475846	     -0.02265033	      3.14522249	     -4.02918767	     -2.03455342	      2.97355207	      0.05189827	      2.81194071	     -3.97917208	     -7.49999987	      3.33696290	     -2.62699807	    -12.06593515	      2.49439877	      0.04353547	      5.95295064	     -5.69724835	     -7.49999987	      1.54143544	      5.85696828	     -0.21892296	     -0.00587715	     -0.01251961	     -0.00564494	     -8.26523810	      5.11319244	      0.35875535	     30.06961296	    100.96775909	     -0.01050315	      0.00834563	     -0.00494350	     69.93832921	    139.62884012	    -16.81936283	     14.68250269	     15.01504241
      6.13333330	     -4.77515367	     -0.23001976	     -0.32783724	      0.31308580	      0.96485789	     -0.02211562	      2.75762434	     -4.01141329	     -1.94363381	      2.59377500	      0.04526991	      2.55686038	     -4.14060339	     -7.49999987	      2.95771489	     -2.57832274	    -12.00715808	      2.07390465	      0.03619646	      5.79775895	     -5.76938597	     -7.49999987	      1.23206241	      5.58278904	      0.53973739	     -0.00884756	     -0.01537473	     -0.00582959	     -8.96908452	      4.89063457	     -0.83144394	     29.99065486	    107.58611792	     -0.00996315	      0.00854008	     -0.00482362	     72.17834514	    139.90589485	    -14.68015301	     13.17624378	      6.66835529
      6.15000000	     -4.76790161	     -0.26131100	     -0.31512576	      0.31708618	      0.96495741	     -0.01804459	      2.67216752	     -3.92937345	     -1.99784663	      2.62114721	      0.04574765	      2.54406397	     -4.16860924	     -7.49999987	      2.90098524	     -2.67360724	    -12.02270220	      2.10147558	      0.03667767	      5.76479292	     -5.76445193	     -7.49999987	      1.27077904	      5.53635410	      0.60339048	     -0.00948672	     -0.01544240	     -0.00588488	     -8.95983757	      4.81405952	     -0.81112583	     29.96269347	    107.59453755	     -0.01042033	      0.00869652	     -0.00484322	     72.13481313	    139.93348153	    -14.68709948	     13.15638220	      6.67260722
      6.16666670	     -4.63666086	     -0.32559411	     -0.31854967	      0.31741435	      0.96484607	     -0.01781938	      2.41793005	     -3.79332459	     -2.02194655	      2.56579051	      0.04478149	      2.48537750	     -4.34145501	     -7.49999987	      2.69472958	     -2.80322555	    -12.09627347	      2.11458470	      0.03690647	      5.86934835	     -5.70235106	     -7.49999987	      1.13967431	      5.55600610	      0.60535918	     -0.00987170	     -0.01526312	     -0.00587775	     -9.17437060	      4.64084971	     -0.65327194	     29.80065214	    107.43003034	     -0.01083137	      0.00865391	     -0.00487964	     71.73656325	    140.05646379	    -15.32429997	     13.57899589	      6.72217563
      6.18333330	     -4.59438238	     -0.34967244	     -0.32453055	      0.31696579	      0.96496731	     -0.01817918	      2.29544011	     -3.70848714	     -2.01058610	      2.53724891	      0.04428335	      2.51948284	     -4.46747464	     -7.49999987	      2.56885640	     -2.88205455	    -12.16388167	      2.06872351	      0.03610604	      5.91554767	     -5.55909961	     -7.49999987	      1.15139157	      5.53647003	      0.78043797	     -0.01037889	     -0.01531593	     -0.00586323	     -9.57218396	      4.58528376	     -0.38838352	     29.85767398	    107.72617385	     -0.01074853	      0.00837358	     -0.00487670	     71.48560796	    140.03527861	    -15.17394129	     14.02579103	      6.82492134
      6.20000000	     -4.53619725	     -0.37183567	     -0.35057256	      0.31719678	      0.96483676	     -0.01799817	      2.16834788	     -3.62409721	     -1.87203529	      2.48241769	      0.04332636	      2.50912589	     -4.69030054	     -7.49999987	      2.42737556	     -2.95044122	    -12.22883832	      2.02303637	      0.03530865	      5.98591152	     -5.44849030	     -7.49999987	      1.08747301	      5.45494839	      0.85300683	     -0.01122025	     -0.01526109	     -0.00591888	     -9.94812800	      4.42833455	     -0.48118210	     29.97485250	    107.62816231	     -0.01130863	      0.00849975	     -0.00487813	     71.39769429	    140.06763066	    -14.76683704	     14.26303673	      7.11370156
      6.21666670	     -4.52039673	     -0.37662725	     -0.34281924	      0.31679367	      0.96488269	     -0.01838710	      2.10152733	     -3.57705698	     -2.03602123	      2.43811560	      0.04255314	      2.73238855	     -4.42340076	     -7.49999987	      2.35535547	     -2.97624590	    -12.22416068	      1.98088556	      0.03457298	      5.99747724	     -5.38956599	     -7.49999987	      1.18137886	      5.40899366	      0.48219359	     -0.01067255	     -0.01520888	     -0.00596437	     -9.42195921	      4.41190414	     -0.57811246	     29.93457834	    107.12694523	     -0.01195028	      0.00841785	     -0.00492364	     70.81753131	    140.01868899	    -14.79003225	     14.72221589	      7.05503008
      6.23333330	     -4.52585687	     -0.35145486	     -0.33961536	      0.31275129	      0.96465390	     -0.02258124	      2.13995434	     -3.65220097	     -2.00835087	      2.44135640	      0.04260971	      2.75222019	     -4.44993498	     -7.49999987	      2.38647235	     -2.90062721	    -12.22229230	      1.95128539	      0.03405635	      6.03687408	     -5.39182373	     -7.49999987	      1.20098827	      5.42927386	      0.40822692	     -0.00924616	     -0.01492194	     -0.00587543	     -9.44789532	      4.55946130	     -0.60418061	     30.00577859	    107.13295910	     -0.01111489	      0.00852824	     -0.00489265	     70.89316292	    139.98345629	    -14.77354527	     14.76856085	      7.06130423
      6.25000000	     -4.51937683	     -0.34307966	     -0.34830970	      0.31681032	      0.96479173	     -0.01849603	      2.12541907	     -3.62385176	     -1.98085391	      2.43098699	      0.04242873	      2.77264047	     -4.45792825	     -7.49999987	      2.35466791	     -2.90474265	    -12.21394598	      1.93996385	      0.03385876	      6.05650948	     -5.38823462	     -7.49999987	      1.26158616	      5.40493063	      0.36525821	     -0.00968252	     -0.01487372	     -0.00603252	     -9.45379196	      4.57095967	     -0.61087270	     30.03641785	    107.13685872	     -0.01142811	      0.00837660	     -0.00492018	     70.93660929	    140.00663235	    -14.76413731	     14.80739404	      7.06576846
      6.26666670	     -4.71734646	     -0.35836028	     -0.37044498	      0.31664478	      0.96409796	     -0.01840040	      2.57188558	     -3.59872760	     -1.89607502	      2.86022915	      0.04992042	      3.00974999	     -4.69117280	     -7.49999987	      2.77768536	     -2.97435152	    -12.39541470	      2.37069757	      0.04137648	      6.51968712	     -5.14185561	     -7.49999987	      1.64475086	      5.57056831	     -0.17566999	     -0.00743457	     -0.01210060	     -0.00572676	     -7.94845685	      4.85286783	      0.21639413	     29.90403505	    101.42782533	     -0.01148559	      0.00912538	     -0.00499903	     69.03699325	    139.74957636	    -16.44895294	     16.67437392	     14.90874260
